<?xml version="1.0" encoding="UTF-8"?>
<!DOCTYPE svg>
<svg xmlns="http://www.w3.org/2000/svg" version="1.1" width="24" height="24" viewBox="0 0 24 24"><path fill="#ffffff" d="M12,3a9,9,0,1,0,9,9,8.44,8.44,0,0,0-.13-1.5A1,1,0,0,0,20,10H18V9a1,1,0,0,0-1-1H15V7a1,1,0,0,0-1-1H13V4a1,1,0,0,0-1-1M9.5,6A1.5,1.5,0,1,1,8,7.5,1.5,1.5,0,0,1,9.5,6m-3,4A1.5,1.5,0,1,1,5,11.5,1.5,1.5,0,0,1,6.5,10m5,1A1.5,1.5,0,1,1,10,12.5,1.5,1.5,0,0,1,11.5,11m5,2a1.5,1.5,0,0,1,0,3h0A1.5,1.5,0,0,1,15,14.5h0A1.5,1.5,0,0,1,16.5,13M11,16a1.5,1.5,0,1,1-1.5,1.5A1.5,1.5,0,0,1,11,16z"/></svg>