<?xml version="1.0" encoding="UTF-8"?>
<!DOCTYPE svg>
<svg xmlns="http://www.w3.org/2000/svg" version="1.1" width="24" height="24" viewBox="0 0 24 24"><path fill="#ff4081" d="M.12,7s-.36,12.16,10,13.47S24.1,11,24.1,11z"/><path fill="#ffffff" d="M7.56,2.34a8.33,8.33,0,0,0-.71,3.39A2.94,2.94,0,0,0,7.72,8l3,.52L8.92,5l2.54,3.54L13.88,9l2.3-1.14L14.77,9.11s1,.22,1.18.24a1.52,1.52,0,0,0,1.61-.87A3,3,0,0,0,18,6.8a7.39,7.39,0,0,0-2.93,0,2.92,2.92,0,0,0-1.85,1.34,3.27,3.27,0,0,0-.91-3.46A10.12,10.12,0,0,0,7.56,2.34z"/></svg>
