<?xml version="1.0" encoding="UTF-8"?>
<!DOCTYPE svg>
<svg xmlns="http://www.w3.org/2000/svg" version="1.1" width="24" height="24" viewBox="0 0 24 24"><path fill="#ffffff" d="M12,20l.76-3c-3.26-.21-6.17-1.6-7-3.42a3.83,3.83,0,0,1-.42,1.25C4.67,16,3.33,16,2,16c1.1,0,1.5-1.57,1.5-3.5S3.1,9,2,9c1.33,0,2.67,0,3.33,1.17a3.83,3.83,0,0,1,.42,1.25C6.4,10,8.32,8.85,10.66,8.32L9,5c2,0,4,0,5.33.67a5.69,5.69,0,0,1,2.36,2.71c2.92.7,5.31,2.28,5.31,4.12s-2.5,3.5-5.5,4.16a16.2,16.2,0,0,1-2.33,2.67A3,3,0,0,1,12,20m5-9a1,1,0,1,0,1,1A1,1,0,0,0,17,11z"/></svg>